<svg xmlns="http://www.w3.org/2000/svg" width="142" height="54" fill="none"><path fill="#161616" d="M.906 45.32c0-.96.272-2.032.816-3.216a24.206 24.206 0 0 1 2.16-3.648 41.718 41.718 0 0 1 2.832-3.552c1.024-1.184 2-2.224 2.928-3.12.96-.896 1.808-1.616 2.544-2.16s1.232-.816 1.488-.816c.672 0 1.328.272 1.968.816.832.576 1.488 1.152 1.968 1.728.16.16.24.352.24.576 0 .256-.24.688-.72 1.296-.48.576-1.328 1.376-2.544 2.4-.544.448-1.104.912-1.68 1.392-.544.48-1.072.96-1.584 1.44-.48.48-.928.976-1.344 1.488-.384.48-.688.944-.912 1.392-.16.384-.24.688-.24.912 0 .288.128.624.384 1.008s.704.576 1.344.576c.224 0 .48-.048.768-.144a23.041 23.041 0 0 0 4.272-2.112 22.489 22.489 0 0 0 3.648-2.928c1.088-1.088 1.952-2.208 2.592-3.36.672-1.184 1.008-2.32 1.008-3.408 0-.8-.416-1.52-1.248-2.16-.8-.64-1.824-1.248-3.072-1.824a68.54 68.54 0 0 0-3.984-1.824 34.14 34.14 0 0 1-4.032-2.112c-1.216-.8-2.24-1.712-3.072-2.736-.8-1.056-1.2-2.288-1.2-3.696 0-1.536.416-3.024 1.248-4.464a18.667 18.667 0 0 1 3.264-4.08 28.12 28.12 0 0 1 4.464-3.456 42.959 42.959 0 0 1 4.752-2.688c1.536-.736 2.944-1.312 4.224-1.728 1.28-.416 2.24-.624 2.88-.624.704 0 1.424.192 2.16.576a9.22 9.22 0 0 1 2.016 1.344c.576.512.992.96 1.248 1.344.288.384.432.672.432.864 0 .064-.032.128-.096.192-4.256 4.608-7.216 8.608-8.88 12-.8 1.184-1.2 2.368-1.2 3.552v1.008c.032.608.304 1.376.816 2.304.48.928 1.104 1.68 1.872 2.256.768.544 1.504.816 2.208.816.448 0 .8-.096 1.056-.288.288-.224.512-.48.672-.768.16-.32.256-.656.288-1.008.064-.352.096-.656.096-.912 0-.608-.096-1.408-.288-2.4-.192-.992-.64-2.352-1.344-4.08.832 1.792 1.392 3.376 1.68 4.752.128.608.192 1.216.192 1.824a4.119 4.119 0 0 1-.24 1.68c-.192.48-.496.896-.912 1.248-.416.352-.976.576-1.68.672-.096.032-.256.048-.48.048-.288 0-.64-.064-1.056-.192-.384-.16-.816-.4-1.296-.72-.48-.352-.976-.8-1.488-1.344-.48-.544-.944-1.2-1.392-1.968-1.216-1.952-1.824-4.288-1.824-7.008v-1.392c.032-.832.352-2.064.96-3.696.064-.256.096-.432.096-.528 0-.224-.096-.464-.288-.72-.16-.288-.416-.432-.768-.432-.288 0-.496.064-.624.192-1.664 1.024-3.12 2.096-4.368 3.216-1.216 1.088-2.288 2.4-3.216 3.936-.672 1.024-1.008 1.904-1.008 2.64v.432c0 .16.048.368.144.624.096.224.24.48.432.768.224.288.528.592.912.912.8.64 1.792 1.2 2.976 1.68 1.216.48 2.496.944 3.84 1.392 1.536.576 2.896 1.104 4.08 1.584 1.184.48 2.16.976 2.928 1.488.8.512 1.392 1.056 1.776 1.632.416.576.624 1.232.624 1.968 0 .128-.032.448-.096.96-.032.512-.336 1.344-.912 2.496a21.73 21.73 0 0 1-1.152 1.92 28.446 28.446 0 0 1-1.536 2.208c-.832 1.12-1.904 2.384-3.216 3.792a41.379 41.379 0 0 1-4.272 3.888 28.851 28.851 0 0 1-4.608 3.072c-1.568.832-3.024 1.248-4.368 1.248-.544 0-.848-.032-.912-.096-.224-.032-.672-.288-1.344-.768a66.022 66.022 0 0 1-2.064-1.728 27.875 27.875 0 0 1-1.92-2.016c-.544-.672-.816-1.216-.816-1.632ZM48.787 3.848a20.017 20.017 0 0 1-2.208 4.464c-.864 1.312-1.76 2.448-2.688 3.408-.896.96-1.744 1.712-2.544 2.256-.8.512-1.408.768-1.824.768-.352 0-.528-.192-.528-.576.096-.48.256-1.088.48-1.824l.816-2.352c.32-.832.656-1.68 1.008-2.544.352-.864.688-1.664 1.008-2.4.32-.736.608-1.36.864-1.872.256-.544.464-.912.624-1.104.064-.064.192-.096.384-.096s.496.048.912.144c.448.064.992.208 1.632.432.64.224 1.152.448 1.536.672.384.192.576.368.576.528 0 .032-.016.064-.048.096ZM29.107 38.6c-.192-.32-.288-.8-.288-1.44 0-.448.08-1.136.24-2.064.16-.96.512-2.288 1.056-3.984.256-.832.56-1.68.912-2.544.32-.864.656-1.744 1.008-2.64a140.29 140.29 0 0 1 1.632-3.696 103.745 103.745 0 0 1 1.584-3.216c.512-.928.96-1.664 1.344-2.208.384-.544.672-.816.864-.816.192 0 .576.128 1.152.384.608.224 1.216.496 1.824.816.608.32 1.104.624 1.488.912.384.256.576.432.576.528 0 .032-.016.064-.048.096-.64.544-1.264 1.232-1.872 2.064a35.265 35.265 0 0 0-1.68 2.688 47.036 47.036 0 0 0-1.44 2.832c-.448.928-.832 1.76-1.152 2.496a1.682 1.682 0 0 0-.096.528c0 .288.144.608.432.96.32.32.688.56 1.104.72.416.192.8.288 1.152.288.384 0 .688-.112.912-.336.224-.256.464-.56.72-.912a927.993 927.993 0 0 1 3.36-4.176 102.665 102.665 0 0 1 2.88-3.504c.832-.96 1.424-1.616 1.776-1.968.352-.352.592-.528.72-.528.064 0 .096.08.096.24v.048c-.096.544-.464 1.408-1.104 2.592-.608 1.152-1.392 2.464-2.352 3.936-.928 1.44-1.952 2.96-3.072 4.56a91.84 91.84 0 0 1-3.264 4.512 79.283 79.283 0 0 1-2.928 3.696c-.896 1.056-1.6 1.76-2.112 2.112h-.48c-.256 0-.48-.048-.672-.144-.032.032-.096.048-.192.048-.32 0-.944-.32-1.872-.96-.448-.288-.88-.608-1.296-.96-.448-.384-.752-.704-.912-.96Z"/><path fill="#161616" d="M45.058 41.48c-.768-.32-1.392-.656-1.872-1.008-.48-.384-.848-.752-1.104-1.104-.256-.352-.416-.704-.48-1.056a3.831 3.831 0 0 1-.144-1.008c0-.256.048-.656.144-1.2.096-.544.288-1.344.576-2.4.384-1.28.848-2.592 1.392-3.936a53.847 53.847 0 0 1 1.68-3.936 57.096 57.096 0 0 1 1.776-3.696 48.747 48.747 0 0 1 1.632-3.024c.512-.896.96-1.616 1.344-2.16.384-.544.672-.848.864-.912h.096c.224 0 .624.112 1.2.336.576.192 1.184.448 1.824.768.64.32 1.136.608 1.488.864.352.256.528.432.528.528 0 .032-.016.048-.048.048-.928.928-1.888 2.224-2.88 3.888a67.466 67.466 0 0 0-2.784 5.28 97.146 97.146 0 0 0-2.352 5.472c-.672 1.792-1.184 3.296-1.536 4.512.384-.864.928-1.92 1.632-3.168.736-1.28 1.536-2.624 2.4-4.032a239.75 239.75 0 0 1 2.784-4.272c.992-1.44 1.936-2.752 2.832-3.936a55.738 55.738 0 0 1 2.496-3.072c.768-.864 1.392-1.424 1.872-1.68.064-.032.176-.048.336-.048.256 0 .64.08 1.152.24.544.16 1.12.384 1.728.672.608.32 1.088.624 1.44.912.352.288.528.512.528.672 0 .064-.032.128-.096.192-.832.832-1.648 1.888-2.448 3.168a40.099 40.099 0 0 0-2.256 4.032 68.523 68.523 0 0 0-1.968 4.416 53.9 53.9 0 0 0-1.44 4.128c-.032.032-.048.08-.048.144 0 .064.032.112.096.144.096.032.16.048.192.048.128 0 .208-.064.24-.192.384-.736.912-1.664 1.584-2.784a140.094 140.094 0 0 1 2.208-3.648c.832-1.312 1.696-2.64 2.592-3.984a89.022 89.022 0 0 1 2.592-3.696 43.809 43.809 0 0 1 2.4-2.88c.736-.8 1.344-1.312 1.824-1.536.064-.032.176-.048.336-.048.256 0 .64.08 1.152.24a9.173 9.173 0 0 1 1.68.624c.576.32 1.024.624 1.344.912.352.288.528.528.528.72 0 .096-.016.16-.048.192-.928.992-1.872 2.304-2.832 3.936a54.436 54.436 0 0 0-2.688 5.088 53.865 53.865 0 0 0-2.16 5.376c-.608 1.792-1.024 3.36-1.248 4.704.512-.576 1.216-1.44 2.112-2.592a165.327 165.327 0 0 0 2.88-3.936 842.321 842.321 0 0 0 3.216-4.416c1.12-1.536 2.144-2.944 3.072-4.224.928-1.28 1.712-2.352 2.352-3.216.672-.896 1.088-1.408 1.248-1.536l.144-.048c.256 0 .384.144.384.432 0 .064-.016.16-.048.288a4.612 4.612 0 0 0-.096.336.773.773 0 0 1-.096.336 9309.68 9309.68 0 0 1-6.624 10.224 794.673 794.673 0 0 0-2.544 3.792 551.56 551.56 0 0 1-2.256 3.36 64.237 64.237 0 0 1-1.728 2.448c-.48.64-.784.992-.912 1.056h-.048c-.032.032-.112.048-.24.048-.16 0-.432-.064-.816-.192-.384-.128-.864-.352-1.44-.672-.576-.32-1.12-.672-1.632-1.056-.512-.416-.848-.8-1.008-1.152-.192-.32-.288-.784-.288-1.392 0-.352.064-.912.192-1.68.128-.8.384-1.824.768-3.072a.669.669 0 0 0 .048-.288c0-.16-.08-.32-.24-.48a.844.844 0 0 0-.624-.24c-.288 0-.528.128-.72.384-.64.896-1.28 1.824-1.92 2.784a70.494 70.494 0 0 0-1.68 2.688c-.48.864-.896 1.664-1.248 2.4-.352.704-.576 1.296-.672 1.776l-.096.144c0 .064-.032.096-.096.096-.096 0-.288-.048-.576-.144a12.238 12.238 0 0 1-1.056-.624c-.48-.256-.96-.56-1.44-.912-.448-.352-.768-.688-.96-1.008-.256-.448-.384-.992-.384-1.632 0-.352.064-.944.192-1.776.16-.832.464-1.92.912-3.264a.534.534 0 0 0 .048-.24c0-.192-.096-.368-.288-.528a.844.844 0 0 0-.624-.24c-.288 0-.528.128-.72.384a74.11 74.11 0 0 0-3.168 5.04 46.878 46.878 0 0 0-2.496 4.848c0 .064-.048.096-.144.096-.096 0-.336-.08-.72-.24Z"/><path fill="#161616" d="M69.325 49.736c0-.928.192-2.08.576-3.456a46.165 46.165 0 0 1 1.44-4.608 77.776 77.776 0 0 1 2.016-5.184 160.557 160.557 0 0 1 2.256-5.232 117.18 117.18 0 0 1 2.256-4.8 213.117 213.117 0 0 1 1.92-3.84.737.737 0 0 0 .096-.288c0-.128-.064-.24-.192-.336a.638.638 0 0 0-.384-.144c-.032 0-.144.032-.336.096-.544.352-1.104.72-1.68 1.104-.608.384-1.184.752-1.728 1.104-.32.224-.624.432-.912.624-.32.192-.64.4-.96.624 1.28-1.184 2.528-2.336 3.744-3.456 1.024-.96 2.096-1.968 3.216-3.024a287.686 287.686 0 0 0 2.928-2.88c.064 0 .384.112.96.336.576.192 1.216.464 1.92.816.672.352 1.232.672 1.68.96.448.256.672.432.672.528 0 .032-.016.064-.048.096-1.888 1.696-4.336 5.856-7.344 12.48a364.47 364.47 0 0 1 3.456-5.184c.064-.096.208-.304.432-.624l.912-1.248c.352-.48.736-1.008 1.152-1.584.416-.576.848-1.152 1.296-1.728.928-1.216 1.744-2.192 2.448-2.928.704-.768 1.168-1.152 1.392-1.152.032 0 .064.016.096.048h.096c.192 0 .56.096 1.104.288.544.192 1.104.432 1.68.72a8.746 8.746 0 0 1 1.536.864c.48.32.736.624.768.912 0 .224-.192.752-.576 1.584-.384.8-.88 1.776-1.488 2.928-.608 1.12-1.28 2.32-2.016 3.6a166.377 166.377 0 0 1-2.064 3.648 220.25 220.25 0 0 1-1.728 2.976c-.48.832-.8 1.376-.96 1.632a187.124 187.124 0 0 1-1.728 2.832c-.48.736-.912 1.328-1.296 1.776-.352.448-.672.768-.96.96-.256.192-.496.288-.72.288-.256 0-.688-.176-1.296-.528a25.928 25.928 0 0 1-1.872-1.2 30.33 30.33 0 0 1-1.728-1.296c-.544-.448-.88-.752-1.008-.912-1.056 2.496-1.888 4.608-2.496 6.336-.64 1.728-1.12 3.168-1.44 4.32-.352 1.152-.576 2.048-.672 2.688-.096.64-.144 1.104-.144 1.392v.432c0 .096.016.192.048.288 0 .128-.048.192-.144.192-.192 0-.512-.128-.96-.384a21.917 21.917 0 0 1-1.632-1.056c-.64-.416-1.056-.8-1.248-1.152a2.434 2.434 0 0 1-.336-1.248Zm14.448-20.4c-.192.256-.288.512-.288.768-.064 0-.064.096 0 .288.064.16.176.352.336.576.16.192.368.368.624.528.256.16.544.24.864.24.576 0 1.008-.256 1.296-.768.416-.736.752-1.44 1.008-2.112.288-.672.56-1.344.816-2.016.288-.704.56-1.424.816-2.16.288-.768.64-1.6 1.056-2.496.032-.032.048-.08.048-.144 0-.096-.048-.16-.144-.192a.368.368 0 0 0-.144-.048c-.064 0-.128.032-.192.096-.8.96-1.424 1.696-1.872 2.208-.448.48-.864.944-1.248 1.392-.352.416-.752.896-1.2 1.44-.416.544-1.008 1.344-1.776 2.4Z"/><path fill="#161616" d="M93.751 38.36c-.096-.32-.144-.72-.144-1.2 0-.576.112-1.424.336-2.544.192-1.12.592-2.624 1.2-4.512.32-.928.656-1.888 1.008-2.88s.736-2.016 1.152-3.072c.64-1.536 1.296-3.072 1.968-4.608.672-1.536 1.312-3.008 1.92-4.416.64-1.408 1.232-2.704 1.776-3.888a124.966 124.966 0 0 1 1.44-3.12.737.737 0 0 0 .096-.288c0-.128-.064-.24-.192-.336a.638.638 0 0 0-.384-.144c-.032 0-.144.032-.336.096l-1.68 1.152c-.576.416-1.136.8-1.68 1.152-.32.224-.624.448-.912.672-.288.192-.592.4-.912.624a249.91 249.91 0 0 1 2.544-2.688 86.787 86.787 0 0 1 4.176-4.224 29.819 29.819 0 0 1 1.68-1.488 23.15 23.15 0 0 1 1.248-.96c.352-.256.592-.384.72-.384h.096c.384.096.832.288 1.344.576.544.256 1.056.528 1.536.816.48.288.88.56 1.2.816.352.224.528.368.528.432 0 .032-.016.064-.048.096-.864.8-1.84 2.128-2.928 3.984-1.056 1.824-2.144 3.92-3.264 6.288-1.088 2.336-2.16 4.8-3.216 7.392a281.01 281.01 0 0 0-2.88 7.248 1.58 1.58 0 0 0-.096.48c0 .16.064.32.192.48.16.16.4.24.72.24.384 0 .736-.128 1.056-.384a66.378 66.378 0 0 0 3.6-3.36c1.248-1.248 2.4-2.416 3.456-3.504a283.584 283.584 0 0 0 2.64-2.832c.704-.768 1.088-1.168 1.152-1.2l.048-.048c.032-.032.08-.048.144-.048.032 0 .064.016.096.048.16.064.24.256.24.576 0 .128-.224.528-.672 1.2a95.597 95.597 0 0 1-1.68 2.592 503.536 503.536 0 0 1-5.184 7.392c-.96 1.312-1.904 2.608-2.832 3.888a267.239 267.239 0 0 1-2.544 3.456 258.5 258.5 0 0 1-1.872 2.496c-.512.64-.816.992-.912 1.056-.032 0-.112.016-.24.048a.786.786 0 0 1-.192.048c-.192 0-.448-.112-.768-.336a5.556 5.556 0 0 1-1.008-.48 13.084 13.084 0 0 1-1.104-.72 9.4 9.4 0 0 1-1.008-.864c-.288-.288-.496-.56-.624-.816Z"/><path fill="#161616" d="M106.45 38.456c-.192-.32-.288-.8-.288-1.44 0-.416.08-1.072.24-1.968.128-.896.432-2.16.912-3.792.256-.8.544-1.616.864-2.448.288-.832.608-1.68.96-2.544a55.92 55.92 0 0 1 1.632-3.696 76.156 76.156 0 0 1 1.536-3.168c.512-.928.976-1.68 1.392-2.256.416-.608.752-.96 1.008-1.056.032-.032.144-.048.336-.048.224 0 .624.096 1.2.288.576.192 1.264.464 2.064.816.768.352 1.488.72 2.16 1.104.672.352 1.104.592 1.296.72.768.48 1.152.928 1.152 1.344 0 .096-.016.16-.048.192-.768 1.92-1.696 3.648-2.784 5.184-1.056 1.536-2.112 2.848-3.168 3.936-1.024 1.088-1.968 1.952-2.832 2.592-.864.608-1.488.96-1.872 1.056-.544 1.472-.944 2.736-1.2 3.792-.288 1.056-.448 1.936-.48 2.64.736-.544 1.648-1.344 2.736-2.4a94.194 94.194 0 0 0 3.456-3.552 166.145 166.145 0 0 0 3.792-4.128 119.212 119.212 0 0 0 3.552-4.272 83.786 83.786 0 0 0 2.928-3.792c.832-1.152 1.424-2.08 1.776-2.784l.048-.048.048-.048c.064 0 .16.064.288.192.032.032.048.112.048.24 0 .288-.16.768-.48 1.44-.288.64-.8 1.504-1.536 2.592a85.08 85.08 0 0 1-2.592 3.6c-.96 1.312-1.968 2.64-3.024 3.984a213.326 213.326 0 0 1-3.264 3.936 133.774 133.774 0 0 1-2.976 3.408 46.285 46.285 0 0 1-2.352 2.448c-.64.64-1.088 1.008-1.344 1.104h-.096c0 .064-.048.096-.144.096-.128 0-.416-.128-.864-.384-.256 0-.576-.096-.96-.288-.416-.224-.832-.48-1.248-.768-.416-.32-.8-.64-1.152-.96-.352-.32-.592-.608-.72-.864Zm7.008-8.736c-.032.032-.048.08-.048.144 0 .064.032.112.096.144.096.032.16.048.192.048.064 0 .128-.048.192-.144.096-.128.432-.496 1.008-1.104.608-.64 1.2-1.664 1.776-3.072.032-.032.048-.08.048-.144 0-.128-.064-.24-.192-.336a.456.456 0 0 0-.384-.192c-.192 0-.336.096-.432.288-.352.576-.624 1.024-.816 1.344a12.52 12.52 0 0 0-.528.864c-.128.256-.256.544-.384.864-.128.288-.304.72-.528 1.296Z"/><path fill="#161616" d="M123.739 39.32c-.224-.32-.336-.752-.336-1.296 0-.352.096-.896.288-1.632.192-.736.592-1.664 1.2-2.784a30.15 30.15 0 0 1 2.016-3.216c.736-1.056 1.376-1.888 1.92-2.496-.096-.192-.288-.4-.576-.624-.256-.224-.56-.464-.912-.72a68.701 68.701 0 0 0-1.008-.72c-.352-.256-.64-.48-.864-.672-.288-.192-.432-.432-.432-.72 0-.064.016-.192.048-.384s.192-.528.48-1.008c.288-.448.672-.928 1.152-1.44.48-.544.992-1.136 1.536-1.776.256-.32.576-.672.96-1.056l1.104-1.2c.384-.384.72-.704 1.008-.96.288-.288.48-.464.576-.528.032-.032.096-.048.192-.048.192 0 .512.096.96.288.48.16 1.008.4 1.584.72.576.32 1.088.64 1.536.96.48.288.72.464.72.528-.16.576-.448 1.248-.864 2.016a33.523 33.523 0 0 1-1.296 2.256c-.48.768-.976 1.52-1.488 2.256-.512.704-.96 1.312-1.344 1.824.192.096.496.224.912.384.416.128.832.272 1.248.432.416.16.784.32 1.104.48.32.128.48.24.48.336 0 .032-.016.048-.048.048a13.7 13.7 0 0 0-2.496 1.92c-.8.768-1.52 1.6-2.16 2.496-.224.32-.336.608-.336.864 0 .064.016.192.048.384.064.16.352.24.864.24.544 0 .992-.176 1.344-.528.48-.576 1.008-1.312 1.584-2.208a78.951 78.951 0 0 0 1.728-2.928 104.73 104.73 0 0 0 1.728-3.12c.576-1.056 1.088-2 1.536-2.832.448-.864.816-1.552 1.104-2.064.288-.544.448-.816.48-.816l.048-.048c.32 0 .48.112.48.336 0 .096-.256.688-.768 1.776a376.71 376.71 0 0 1-1.968 3.984 197.736 197.736 0 0 1-2.592 5.088 211.174 211.174 0 0 1-2.784 5.04c-.896 1.568-1.712 2.88-2.448 3.936-.736 1.024-1.264 1.552-1.584 1.584 0 .032-.064.048-.192.048h-.48c-.192-.032-.544-.176-1.056-.432-.256-.064-.592-.16-1.008-.288a8.797 8.797 0 0 1-1.152-.48 15.724 15.724 0 0 1-1.056-.576c-.352-.224-.592-.432-.72-.624Zm5.856-13.632c-.032.032-.048.096-.048.192s.048.192.144.288a.702.702 0 0 0 .432.144h.288a.604.604 0 0 0 .336-.24c.416-.544.784-1.04 1.104-1.488.352-.48.688-.944 1.008-1.392.032-.032.048-.08.048-.144 0-.096-.064-.16-.192-.192a.773.773 0 0 0-.336-.096.46.46 0 0 0-.336.144c-1.312 1.376-2.128 2.304-2.448 2.784Z"/></svg>